<?xml version="1.0" encoding="UTF-8" standalone="no"?>
<!-- Generator: Adobe Illustrator 19.0.0, SVG Export Plug-In . SVG Version: 6.00 Build 0)  -->

<svg
   xmlns:dc="http://purl.org/dc/elements/1.1/"
   xmlns:cc="http://creativecommons.org/ns#"
   xmlns:rdf="http://www.w3.org/1999/02/22-rdf-syntax-ns#"
   xmlns:svg="http://www.w3.org/2000/svg"
   xmlns="http://www.w3.org/2000/svg"
   xmlns:sodipodi="http://sodipodi.sourceforge.net/DTD/sodipodi-0.dtd"
   xmlns:inkscape="http://www.inkscape.org/namespaces/inkscape"
   version="1.1"
   id="Capa_1"
   x="0px"
   y="0px"
   viewBox="0 0 724.61017 724.61017"
   xml:space="preserve"
   sodipodi:docname="scuba-diving.svg"
   inkscape:version="0.92.3 (2405546, 2018-03-11)"
   width="724.61017"
   height="724.61017">
   <metadata
   id="metadata79">
      <rdf:RDF>
         <cc:Work
   rdf:about="">
            <dc:format>image/svg+xml</dc:format>
            <dc:type
   rdf:resource="http://purl.org/dc/dcmitype/StillImage" />
         <dc:title /></cc:Work>
      </rdf:RDF>
   </metadata>
   <defs
   id="defs77" />
   <sodipodi:namedview
   pagecolor="#ffffff"
   bordercolor="#666666"
   borderopacity="1"
   objecttolerance="10"
   gridtolerance="10"
   guidetolerance="10"
   inkscape:pageopacity="0"
   inkscape:pageshadow="2"
   inkscape:window-width="3840"
   inkscape:window-height="2066"
   id="namedview75"
   showgrid="false"
   inkscape:zoom="0.4609375"
   inkscape:cx="-823.79661"
   inkscape:cy="344.81357"
   inkscape:window-x="-11"
   inkscape:window-y="-11"
   inkscape:window-maximized="1"
   inkscape:current-layer="layer1"
   fit-margin-top="0"
   fit-margin-left="0"
   fit-margin-right="0"
   fit-margin-bottom="0" />

   <g
   inkscape:groupmode="layer"
   id="layer1"
   inkscape:label="bg"
   transform="translate(127.52542,123.7966)">
      <circle
   style="opacity:1;fill:#1b12ee;fill-opacity:1;fill-rule:nonzero;stroke:none;stroke-width:15.11811066;stroke-linecap:square;stroke-linejoin:bevel;stroke-miterlimit:4;stroke-dasharray:none;stroke-opacity:0.94117647;paint-order:markers stroke fill"
   id="path4590"
   cx="234.77966"
   cy="238.50848"
   r="362.30508" />
   </g>
   <g
   inkscape:groupmode="layer"
   id="layer2"
   inkscape:label="icon"
   style="display:inline"
   transform="translate(127.52542,123.7966)">
      <g
   id="g6"
   style="fill:#ffffff;fill-opacity:1"
   transform="matrix(0.86440678,0,0,0.86440678,34.711864,34.711864)">
         <g
   id="g4"
   style="fill:#ffffff;fill-opacity:1">
            <path
   d="m 286,362 c -41.353,0 -75,33.647 -75,75 0,41.353 33.647,75 75,75 41.353,0 75,-33.647 75,-75 0,-41.353 -33.647,-75 -75,-75 z m 15,90 h -30 v -30 h 30 z"
   id="path2"
   inkscape:connector-curvature="0"
   style="fill:#ffffff;fill-opacity:1" />
         </g>
      </g>
      <g
   id="g12"
   style="fill:#ffffff;fill-opacity:1"
   transform="matrix(0.86440678,0,0,0.86440678,34.711864,34.711864)">
         <g
   id="g10"
   style="fill:#ffffff;fill-opacity:1">
            <path
   d="M 361,0 H 241 C 188.042,0 140.367,32.341 118.151,79.699 136.274,68.7 158.297,62 181,62 h 240 c 22.703,0 44.726,6.7 62.849,17.699 C 461.633,32.341 413.958,0 361,0 Z"
   id="path8"
   inkscape:connector-curvature="0"
   style="fill:#ffffff;fill-opacity:1" />
         </g>
      </g>
      <g
   id="g18"
   style="fill:#ffffff;fill-opacity:1"
   transform="matrix(0.86440678,0,0,0.86440678,34.711864,34.711864)">
         <g
   id="g16"
   style="fill:#ffffff;fill-opacity:1">
            <path
   d="M 421,92 H 181 c -49.629,0 -91,40.371 -91,90 0,49.629 41.371,90 91,90 h 30 c 31.758,0 60.571,-16.611 77.109,-44.443 L 301,205.833 313.891,227.557 C 330.429,255.389 359.242,272 391,272 h 30 c 49.629,0 91,-40.371 91,-90 0,-49.629 -41.371,-90 -91,-90 z"
   id="path14"
   inkscape:connector-curvature="0"
   style="fill:#ffffff;fill-opacity:1" />
         </g>
      </g>
      <g
   id="g24"
   style="fill:#ffffff;fill-opacity:1"
   transform="matrix(0.86440678,0,0,0.86440678,34.711864,34.711864)">
         <g
   id="g22"
   style="fill:#ffffff;fill-opacity:1">
            <path
   d="m 301,260.794 c -16.333,18.875 -37.846,31.738 -61.699,37.56 C 253.041,318.879 275.612,332 301,332 c 25.386,0 47.957,-13.121 61.699,-33.646 -23.857,-5.823 -45.375,-18.686 -61.699,-37.56 z"
   id="path20"
   inkscape:connector-curvature="0"
   style="fill:#ffffff;fill-opacity:1" />
         </g>
      </g>
      <g
   id="g30"
   style="fill:#ffffff;fill-opacity:1"
   transform="matrix(0.86440678,0,0,0.86440678,34.711864,34.711864)">
         <g
   id="g28"
   style="fill:#ffffff;fill-opacity:1">
            <path
   d="M 185.896,407 H 166 C 108.01,407 60,359.99 60,302 V 272 H 0 v 30 c 0,91.126 74.874,165 166,165 h 19.896 C 183.016,457.431 181,447.494 181,437 c 0,-10.494 2.016,-20.431 4.896,-30 z"
   id="path26"
   inkscape:connector-curvature="0"
   style="fill:#ffffff;fill-opacity:1" />
         </g>
      </g>
      <g
   id="g36"
   style="fill:#ffffff;fill-opacity:1"
   transform="matrix(0.86440678,0,0,0.86440678,34.711864,34.711864)">
         <g
   id="g34"
   style="fill:#ffffff;fill-opacity:1">
            <rect
   y="212"
   width="60"
   height="30"
   id="rect32"
   x="0"
   style="fill:#ffffff;fill-opacity:1" />
         </g>
      </g>
      <g
   id="g42"
   style="fill:#ffffff;fill-opacity:1"
   transform="matrix(0.86440678,0,0,0.86440678,34.711864,34.711864)">
         <g
   id="g40"
   style="fill:#ffffff;fill-opacity:1">
            <rect
   width="60"
   height="182"
   id="rect38"
   x="0"
   y="0"
   style="fill:#ffffff;fill-opacity:1" />
         </g>
      </g>
      <g
   id="g44">
      </g>
      <g
   id="g46">
      </g>
      <g
   id="g48">
      </g>
      <g
   id="g50">
      </g>
      <g
   id="g52">
      </g>
      <g
   id="g54">
      </g>
      <g
   id="g56">
      </g>
      <g
   id="g58">
      </g>
      <g
   id="g60">
      </g>
      <g
   id="g62">
      </g>
      <g
   id="g64">
      </g>
      <g
   id="g66">
      </g>
      <g
   id="g68">
      </g>
      <g
   id="g70">
      </g>
      <g
   id="g72">
      </g>
   </g>
</svg>